<?xml version="1.0" encoding="utf-8"?>
<!-- Generator: Adobe Illustrator 16.0.0, SVG Export Plug-In . SVG Version: 6.00 Build 0)  -->
<!DOCTYPE svg PUBLIC "-//W3C//DTD SVG 1.1//EN" "http://www.w3.org/Graphics/SVG/1.1/DTD/svg11.dtd">
<svg version="1.1" id="Layer_1" xmlns="http://www.w3.org/2000/svg" xmlns:xlink="http://www.w3.org/1999/xlink" x="0px" y="0px"
	 width="250px" height="250px" viewBox="0 0 250 250" enable-background="new 0 0 250 250" xml:space="preserve">
<g transform="translate(1 1)">
	<g>
		<g>
			<g>
				<path fill="#333333" d="M194.68,129.238h-2.621V74.257c0-13.084-10.467-23.556-23.561-23.556
					c-11.582,0-19.918,8.606-20.846,21.184c-6.087,1.155-10.57,6.389-10.57,12.849c0,1.573,1.053,2.621,2.631,2.621h20.935
					c1.563,0,2.622-1.048,2.622-2.621c0-6.389-4.381-11.592-10.361-12.805c0.781-8.316,5.775-15.989,15.59-15.989
					c10.215,0,18.327,8.117,18.327,18.317v54.981h-78.782c-1.189-6.038-6.406-10.472-12.83-10.472
					c-2.621-3.137-6.291-5.243-10.477-5.243c-4.967,0-9.428,2.879-11.516,7.073c-2.102-1.044-4.457-1.83-6.812-1.83
					c-6.429,0-11.649,4.434-12.835,10.472h-0.249c-4.452,0-7.86,3.398-7.86,7.842c0,4.46,3.408,7.868,7.86,7.868h3.146l7.064,28.008
					c2.088,8.108,9.418,13.866,17.798,13.866h2.097l-3.402,6.807c-0.791,1.315-0.258,2.879,1.048,3.412
					c0.258,0.258,0.782,0.258,1.04,0.258c1.049,0,1.834-0.528,2.354-1.315l4.581-9.161h72.646l4.452,8.903
					c0.523,1.045,1.306,1.573,2.35,1.573c0.529,0,0.791,0,1.049-0.528c1.053-0.529,1.577-2.089,1.053-3.399l-3.283-6.558
					c8.108-0.289,15.115-5.949,17.154-13.6l7.131-28.266h3.078c4.443,0,7.855-3.408,7.855-7.868
					C202.535,132.637,199.123,129.238,194.68,129.238z M157.769,82.117H142.85c1.049-3.142,4.193-5.234,7.588-5.234
					C153.841,76.883,156.721,78.976,157.769,82.117z M66.409,124.005c2.354,0,4.456,1.044,6.282,2.869
					c0.529,0.787,1.568,1.054,2.617,0.787c1.049-0.258,1.577-1.044,1.835-2.088c0.786-3.928,3.932-6.807,7.859-6.807
					c2.879,0,5.491,1.306,6.798,3.928c0.523,1.039,1.834,1.572,2.879,1.311c0.262,0,0.533,0,0.791,0c3.402,0,6.277,2.088,7.33,5.233
					H59.083C60.123,126.093,63.01,124.005,66.409,124.005z M179.761,171.646c-1.573,5.758-6.807,9.943-12.827,9.943H81.591
					c-6.011,0-11.254-4.186-12.827-9.943l-6.802-26.697h124.077L179.761,171.646z M194.68,139.701h-5.233H58.555h-5.229
					c-1.573,0-2.622-1.04-2.622-2.621c0-1.564,1.049-2.604,2.622-2.604h2.616h49.73h89.008c1.568,0,2.621,1.039,2.621,2.604
					C197.301,138.661,196.248,139.701,194.68,139.701z"/>
				<path fill="#333333" d="M139.713,99.138c1.563,0,2.612-1.058,2.612-2.626V95.21c0-1.582-1.049-2.621-2.612-2.621
					c-1.578,0-2.631,1.039-2.631,2.621v1.302C137.082,98.08,138.135,99.138,139.713,99.138z"/>
				<path fill="#333333" d="M139.713,111.178c1.563,0,2.612-1.315,2.612-2.621v-2.879c0-1.573-1.049-2.617-2.612-2.617
					c-1.578,0-2.631,1.044-2.631,2.617v2.879C137.082,110.12,138.135,111.178,139.713,111.178z"/>
				<path fill="#333333" d="M139.713,121.383c1.563,0,2.612-1.044,2.612-2.616v-1.311c0-1.568-1.049-2.613-2.612-2.613
					c-1.578,0-2.631,1.045-2.631,2.613v1.311C137.082,120.339,138.135,121.383,139.713,121.383z"/>
				<path fill="#333333" d="M150.185,99.138c1.568,0,2.608-1.058,2.608-2.626V95.21c0-1.582-1.04-2.621-2.608-2.621
					s-2.626,1.039-2.626,2.621v1.302C147.559,98.08,148.616,99.138,150.185,99.138z"/>
				<path fill="#333333" d="M147.559,108.557c0,1.563,1.058,2.621,2.626,2.621s2.608-1.315,2.608-2.621v-2.879
					c0-1.573-1.04-2.617-2.608-2.617s-2.626,1.044-2.626,2.617V108.557z"/>
				<path fill="#333333" d="M147.559,118.767c0,1.572,1.058,2.616,2.626,2.616s2.608-1.044,2.608-2.616v-1.311
					c0-1.568-1.04-2.613-2.608-2.613s-2.626,1.045-2.626,2.613V118.767z"/>
				<path fill="#333333" d="M160.647,99.138c1.563,0,2.622-1.058,2.622-2.626V95.21c0-1.582-1.059-2.621-2.622-2.621
					c-1.573,0-2.612,1.039-2.612,2.621v1.302C158.035,98.08,159.074,99.138,160.647,99.138z"/>
				<path fill="#333333" d="M158.035,108.557c0,1.563,1.039,2.621,2.612,2.621c1.563,0,2.622-1.315,2.622-2.621v-2.879
					c0-1.573-1.059-2.617-2.622-2.617c-1.573,0-2.612,1.044-2.612,2.617V108.557L158.035,108.557z"/>
				<path fill="#333333" d="M158.035,118.767c0,1.572,1.039,2.616,2.612,2.616c1.563,0,2.622-1.044,2.622-2.616v-1.311
					c0-1.568-1.059-2.613-2.622-2.613c-1.573,0-2.612,1.045-2.612,2.613V118.767z"/>
			</g>
		</g>
	</g>
</g>
</svg>
