<?xml version="1.0" encoding="utf-8"?>
<!-- Generator: Adobe Illustrator 16.0.0, SVG Export Plug-In . SVG Version: 6.00 Build 0)  -->
<!DOCTYPE svg PUBLIC "-//W3C//DTD SVG 1.1//EN" "http://www.w3.org/Graphics/SVG/1.1/DTD/svg11.dtd">
<svg version="1.1" id="Layer_1" xmlns="http://www.w3.org/2000/svg" xmlns:xlink="http://www.w3.org/1999/xlink" x="0px" y="0px"
	 width="250px" height="250px" viewBox="0 0 250 250" enable-background="new 0 0 250 250" xml:space="preserve">
<g>
	<g>
		<g>
			<path fill="#333333" d="M200.914,135.477h-2.617v-7.859c-0.009-5.194-3.092-9.895-7.851-11.979V75.257
				c-0.005-1.03-0.618-1.98-1.577-2.398c1.026-1.626,1.572-3.52,1.577-5.447c0-5.785-4.696-10.472-10.477-10.472
				s-10.472,4.687-10.472,10.472c0.018,1.849,0.516,3.656,1.457,5.234H79.041c0.945-1.578,1.448-3.386,1.457-5.234
				c0-5.785-4.688-10.472-10.473-10.472c-5.779,0-10.467,4.687-10.467,10.472c0.004,1.928,0.547,3.821,1.568,5.447
				c-0.946,0.418-1.568,1.368-1.568,2.398v40.382c-4.768,2.084-7.851,6.784-7.859,11.979v7.859h-2.612
				c-1.444,0-2.617,1.168-2.617,2.604v36.658c0,1.435,1.173,2.616,2.617,2.616h2.612v13.094c0,1.444,1.173,2.612,2.625,2.612h10.473
				c1.439,0,2.612-1.168,2.612-2.612v-13.094h115.187v13.094c0,1.444,1.168,2.612,2.612,2.612h10.477
				c1.439,0,2.612-1.168,2.612-2.612v-13.094h2.617c1.443,0,2.616-1.182,2.616-2.616V138.08
				C203.53,136.645,202.357,135.477,200.914,135.477z M179.97,62.173c2.893,0,5.238,2.342,5.238,5.238
				c0,2.888-2.346,5.234-5.238,5.234c-2.888,0-5.229-2.347-5.229-5.234C174.74,64.515,177.082,62.173,179.97,62.173z M70.025,62.173
				c2.893,0,5.238,2.342,5.238,5.238c0,2.888-2.346,5.234-5.238,5.234c-2.892,0-5.229-2.347-5.229-5.234
				C64.797,64.515,67.134,62.173,70.025,62.173z M64.797,77.883h120.411v36.641H174.67c1.732-2.253,2.674-5.012,2.688-7.846v-5.226
				c-0.014-7.232-5.869-13.088-13.094-13.098h-20.935c-7.233,0.01-13.089,5.865-13.098,13.098v5.226
				c0.009,2.834,0.96,5.593,2.688,7.846h-15.844c1.737-2.253,2.68-5.012,2.692-7.846v-5.226
				c-0.013-7.232-5.869-13.088-13.093-13.098H85.731c-7.224,0.01-13.08,5.865-13.08,13.098v5.226c0,2.834,0.951,5.593,2.675,7.846
				H64.797V77.883z M172.119,101.452v5.226c0,4.331-3.519,7.846-7.855,7.846h-20.935c-4.336,0-7.854-3.515-7.854-7.846v-5.226
				c0-4.354,3.519-7.863,7.854-7.863h20.935C168.601,93.589,172.119,97.099,172.119,101.452z M114.525,101.452v5.226
				c0,4.331-3.514,7.846-7.85,7.846H85.731c-4.336,0-7.854-3.515-7.854-7.846v-5.226c0-4.354,3.519-7.863,7.854-7.863h20.944
				C111.012,93.589,114.525,97.099,114.525,101.452z M56.941,127.617c0-4.327,3.515-7.851,7.855-7.851h120.411
				c4.336,0,7.851,3.523,7.851,7.851v7.859H56.941V127.617z M62.176,187.822h-5.234v-10.468h5.234V187.822z M193.059,187.822h-5.229
				v-10.468h5.229V187.822z M198.297,172.117H51.699v-31.416h146.598V172.117z"/>
		</g>
	</g>
</g>
</svg>
