<?xml version="1.0" encoding="utf-8"?>
<!-- Generator: Adobe Illustrator 16.0.0, SVG Export Plug-In . SVG Version: 6.00 Build 0)  -->
<!DOCTYPE svg PUBLIC "-//W3C//DTD SVG 1.1//EN" "http://www.w3.org/Graphics/SVG/1.1/DTD/svg11.dtd">
<svg version="1.1" id="Layer_1" xmlns="http://www.w3.org/2000/svg" xmlns:xlink="http://www.w3.org/1999/xlink" x="0px" y="0px"
	 width="250px" height="250px" viewBox="0 0 250 250" enable-background="new 0 0 250 250" xml:space="preserve">
<g>
	<g>
		<circle fill="#BE0013" cx="125" cy="125.001" r="75.163"/>
	</g>
	<g>
		<g>
			<path fill="#FFFFFF" d="M168.021,146.909c0.175,1.335-0.232,2.496-1.218,3.484l-11.584,11.494
				c-0.52,0.579-1.202,1.072-2.046,1.479c-0.842,0.404-1.67,0.667-2.48,0.782c-0.06,0-0.234,0.016-0.525,0.046
				c-0.288,0.028-0.666,0.042-1.13,0.042c-1.102,0-2.888-0.188-5.355-0.566c-2.468-0.376-5.487-1.308-9.057-2.785
				c-3.571-1.481-7.62-3.703-12.147-6.662c-4.527-2.96-9.347-7.026-14.455-12.191c-4.064-4.007-7.431-7.837-10.102-11.496
				c-2.672-3.655-4.818-7.039-6.444-10.143c-1.627-3.106-2.847-5.922-3.657-8.447c-0.813-2.526-1.364-4.704-1.655-6.531
				c-0.29-1.83-0.406-3.266-0.347-4.311c0.057-1.045,0.087-1.627,0.087-1.74c0.116-0.815,0.378-1.642,0.782-2.483
				c0.404-0.839,0.901-1.523,1.48-2.046l11.581-11.581c0.813-0.813,1.742-1.22,2.789-1.22c0.755,0,1.421,0.219,2.003,0.651
				c0.581,0.437,1.073,0.975,1.478,1.61l9.318,17.679c0.522,0.929,0.669,1.945,0.438,3.049c-0.234,1.102-0.728,2.031-1.482,2.785
				l-4.265,4.27c-0.118,0.113-0.219,0.302-0.306,0.563c-0.088,0.263-0.132,0.481-0.132,0.656c0.232,1.217,0.757,2.609,1.567,4.177
				c0.697,1.396,1.773,3.094,3.22,5.096c1.454,2.003,3.516,4.311,6.185,6.921c2.612,2.671,4.934,4.748,6.967,6.228
				c2.033,1.48,3.731,2.568,5.096,3.267c1.364,0.697,2.406,1.116,3.135,1.261l1.086,0.219c0.118,0,0.306-0.044,0.568-0.131
				c0.261-0.088,0.45-0.188,0.564-0.307l4.964-5.05c1.047-0.929,2.265-1.395,3.657-1.395c0.988,0,1.771,0.175,2.353,0.525h0.087
				l16.806,9.928C167.063,144.791,167.789,145.746,168.021,146.909z"/>
		</g>
	</g>
</g>
</svg>
