<?xml version="1.0" encoding="utf-8"?>
<!-- Generator: Adobe Illustrator 16.0.0, SVG Export Plug-In . SVG Version: 6.00 Build 0)  -->
<!DOCTYPE svg PUBLIC "-//W3C//DTD SVG 1.1//EN" "http://www.w3.org/Graphics/SVG/1.1/DTD/svg11.dtd">
<svg version="1.1" id="Layer_1" xmlns="http://www.w3.org/2000/svg" xmlns:xlink="http://www.w3.org/1999/xlink" x="0px" y="0px"
	 width="250px" height="250px" viewBox="0 0 250 250" enable-background="new 0 0 250 250" xml:space="preserve">
<g>
	<g>
		<path fill="#089720" d="M125,25.095c-55.089,0-99.905,44.817-99.905,99.904c0,55.089,44.816,99.907,99.905,99.907
			c55.088,0,99.905-44.818,99.905-99.907C224.903,69.912,180.088,25.095,125,25.095z M125,208.803
			c-46.209,0-83.804-37.594-83.804-83.806c0-46.211,37.595-83.803,83.804-83.803c46.211,0,83.803,37.596,83.803,83.805
			C208.803,171.209,171.211,208.803,125,208.803z"/>
		<path fill="#089720" d="M156.847,93.143l-46.632,46.637l-17.065-17.064c-3.143-3.146-8.239-3.146-11.382,0
			c-3.146,3.143-3.146,8.24,0,11.383l22.756,22.756c1.572,1.572,3.634,2.361,5.693,2.361s4.119-0.785,5.689-2.361l52.326-52.325
			c3.143-3.146,3.143-8.239,0-11.386C165.086,90,159.993,90,156.847,93.143z"/>
	</g>
</g>
</svg>
