<?xml version="1.0" encoding="utf-8"?>
<!-- Generator: Adobe Illustrator 16.0.0, SVG Export Plug-In . SVG Version: 6.00 Build 0)  -->
<!DOCTYPE svg PUBLIC "-//W3C//DTD SVG 1.1//EN" "http://www.w3.org/Graphics/SVG/1.1/DTD/svg11.dtd">
<svg version="1.1" id="Layer_1" xmlns="http://www.w3.org/2000/svg" xmlns:xlink="http://www.w3.org/1999/xlink" x="0px" y="0px"
	 width="250px" height="250px" viewBox="0 0 250 250" enable-background="new 0 0 250 250" xml:space="preserve">
<g>
	<g>
		<path fill="#FFFFFF" d="M124.998,45.252c-44.041,0-79.746,35.704-79.746,79.748c0,44.039,35.705,79.748,79.746,79.748
			s79.75-35.709,79.75-79.748C204.748,80.956,169.039,45.252,124.998,45.252z M116.129,125c0,1.663-0.305,3.249-0.834,4.73
			l22.257,10.709c2.563-2.807,6.237-4.57,10.335-4.57c7.74,0,14.012,6.271,14.012,14.009c0,7.735-6.279,14.012-14.017,14.012
			c-7.735,0-14.013-6.276-14.013-14.012c0-0.742,0.078-1.466,0.187-2.176l-23.692-11.396c-2.316,1.694-5.161,2.705-8.25,2.705
			c-7.74,0-14.014-6.271-14.014-14.013c0-7.735,6.273-14.009,14.014-14.009c3.089,0,5.936,1.011,8.253,2.705l23.694-11.396
			c-0.113-0.709-0.189-1.429-0.189-2.171c0-7.74,6.275-14.014,14.016-14.014s14.014,6.273,14.014,14.014
			c0,7.735-6.273,14.009-14.014,14.009c-4.093,0-7.771-1.769-10.335-4.572l-22.257,10.706
			C115.824,121.751,116.129,123.342,116.129,125z"/>
	</g>
</g>
</svg>
