<?xml version="1.0" encoding="utf-8"?>
<!-- Generator: Adobe Illustrator 16.0.0, SVG Export Plug-In . SVG Version: 6.00 Build 0)  -->
<!DOCTYPE svg PUBLIC "-//W3C//DTD SVG 1.1//EN" "http://www.w3.org/Graphics/SVG/1.1/DTD/svg11.dtd">
<svg version="1.1" id="Layer_1" xmlns="http://www.w3.org/2000/svg" xmlns:xlink="http://www.w3.org/1999/xlink" x="0px" y="0px"
	 width="250px" height="250px" viewBox="0 0 250 250" enable-background="new 0 0 250 250" xml:space="preserve">
<g>
	<g>
		<path fill="#FFFFFF" d="M207.771,105.647l-12.947-2.197c-1.35-4.356-3.08-8.552-5.197-12.561l7.622-10.669
			c3.233-4.546,2.739-10.749-1.229-14.678l-11.477-11.48c-2.165-2.154-5.011-3.351-8.058-3.351c-2.385,0-4.663,0.729-6.587,2.118
			l-10.709,7.626c-4.155-2.194-8.512-4.005-13.021-5.354l-2.165-12.79c-0.915-5.509-5.651-9.514-11.236-9.514h-16.221
			c-5.586,0-10.322,4.005-11.251,9.514l-2.231,13.098c-4.318,1.349-8.518,3.123-12.52,5.277l-10.596-7.623
			c-1.924-1.39-4.235-2.124-6.627-2.124c-3.04,0-5.933,1.195-8.051,3.354l-11.518,11.48c-3.928,3.929-4.469,10.132-1.235,14.675
			l7.71,10.829c-2.118,4.042-3.815,8.244-5.125,12.593l-12.793,2.158c-5.505,0.926-9.514,5.665-9.514,11.25v16.218
			c0,5.585,4.009,10.325,9.514,11.247l13.101,2.238c1.35,4.309,3.12,8.511,5.278,12.52l-7.59,10.556
			c-3.24,4.543-2.739,10.742,1.236,14.674l11.477,11.48c2.155,2.158,5.011,3.354,8.051,3.354c2.392,0,4.663-0.735,6.587-2.125
			l10.83-7.703c3.888,2.041,7.97,3.701,12.165,5.011l2.158,12.94c0.929,5.512,5.665,9.514,11.247,9.514h16.257
			c5.592,0,10.322-4.002,11.247-9.514l2.202-12.94c4.349-1.35,8.551-3.083,12.553-5.204l10.676,7.63
			c1.924,1.386,4.235,2.117,6.627,2.117l0,0c3.04,0,5.893-1.192,8.051-3.354l11.477-11.478c3.929-3.928,4.47-10.128,1.236-14.678
			l-7.633-10.705c2.121-4.049,3.892-8.241,5.208-12.561l12.94-2.157c5.508-0.922,9.514-5.662,9.514-11.247v-16.218
			C217.284,111.307,213.269,106.569,207.771,105.647z M206.882,133.112c0,0.497-0.348,0.922-0.849,0.998l-16.181,2.696
			c-2.044,0.348-3.668,1.851-4.162,3.817c-1.463,5.662-3.694,11.094-6.707,16.138c-1.035,1.773-0.955,3.969,0.233,5.662
			l9.521,13.411c0.268,0.381,0.23,0.962-0.113,1.307l-11.484,11.48c-0.268,0.268-0.541,0.308-0.729,0.308
			c-0.233,0-0.428-0.077-0.581-0.194l-13.375-9.513c-1.644-1.196-3.882-1.27-5.651-0.234c-5.051,3.007-10.482,5.241-16.141,6.708
			c-2.012,0.501-3.508,2.154-3.814,4.158l-2.732,16.178c-0.081,0.504-0.502,0.849-1.01,0.849h-16.214
			c-0.501,0-0.929-0.345-1.002-0.849l-2.692-16.178c-0.348-2.041-1.851-3.657-3.814-4.158c-5.512-1.43-10.83-3.621-15.8-6.474
			c-0.809-0.461-1.73-0.695-2.619-0.695c-1.042,0-2.111,0.311-3.006,0.966l-13.481,9.59c-0.194,0.117-0.385,0.193-0.575,0.193
			c-0.153,0-0.461-0.04-0.735-0.311l-11.477-11.48c-0.354-0.344-0.388-0.882-0.114-1.31l9.474-13.288
			c1.189-1.693,1.275-3.928,0.234-5.698c-3.007-5.011-5.318-10.442-6.781-16.107c-0.541-1.961-2.158-3.464-4.162-3.812
			l-16.295-2.772c-0.501-0.076-0.848-0.504-0.848-1.002v-16.218c0-0.501,0.347-0.925,0.848-1.002l16.067-2.695
			c2.038-0.348,3.694-1.851,4.195-3.852c1.43-5.665,3.621-11.137,6.587-16.181c1.043-1.773,0.916-3.968-0.267-5.625l-9.594-13.481
			c-0.273-0.388-0.233-0.966,0.114-1.313l11.477-11.478c0.274-0.271,0.541-0.307,0.735-0.307c0.228,0,0.421,0.076,0.574,0.19
			l13.295,9.479c1.696,1.189,3.929,1.27,5.698,0.228c5.011-3.003,10.442-5.314,16.107-6.781c1.965-0.538,3.468-2.154,3.814-4.158
			l2.773-16.295c0.073-0.497,0.494-0.849,0.995-0.849h16.221c0.501,0,0.929,0.352,1.002,0.849l2.699,16.064
			c0.347,2.044,1.844,3.701,3.848,4.198c5.813,1.463,11.364,3.738,16.528,6.781c1.777,1.039,3.969,0.965,5.665-0.23l13.288-9.554
			c0.193-0.117,0.388-0.193,0.581-0.193c0.147,0,0.461,0.036,0.729,0.307l11.478,11.481c0.348,0.348,0.394,0.885,0.12,1.31
			l-9.514,13.368c-1.202,1.656-1.276,3.888-0.233,5.661c3,5.048,5.234,10.476,6.7,16.141c0.501,2.005,2.158,3.504,4.162,3.815
			l16.178,2.732c0.497,0.08,0.845,0.501,0.845,1.005v16.218H206.882z"/>
		<path fill="#FFFFFF" d="M125.017,85.188c-21.953,0-39.79,17.837-39.79,39.793c0,21.96,17.837,39.797,39.79,39.797
			c21.959,0,39.804-17.837,39.804-39.797C164.82,103.025,146.976,85.188,125.017,85.188z M125.017,154.377
			c-16.221,0-29.389-13.175-29.389-29.396c0-16.217,13.168-29.395,29.389-29.395s29.402,13.178,29.402,29.395
			C154.419,141.202,141.237,154.377,125.017,154.377z"/>
	</g>
</g>
</svg>
