<?xml version="1.0" encoding="utf-8"?>
<!-- Generator: Adobe Illustrator 16.0.0, SVG Export Plug-In . SVG Version: 6.00 Build 0)  -->
<!DOCTYPE svg PUBLIC "-//W3C//DTD SVG 1.1//EN" "http://www.w3.org/Graphics/SVG/1.1/DTD/svg11.dtd">
<svg version="1.1" id="Layer_1" xmlns="http://www.w3.org/2000/svg" xmlns:xlink="http://www.w3.org/1999/xlink" x="0px" y="0px"
	 width="250px" height="250px" viewBox="0 0 250 250" enable-background="new 0 0 250 250" xml:space="preserve">
<g>
	<g>
		<circle fill="#BE0013" cx="125" cy="125.001" r="75.162"/>
	</g>
	<g>
		<g>
			<path fill="#FFFFFF" d="M147.071,138.804c-0.281,0-0.565-0.105-0.787-0.315l-13.227-12.405c-0.459-0.435-0.483-1.16-0.051-1.624
				c0.436-0.466,1.161-0.487,1.627-0.05l13.225,12.407c0.461,0.433,0.485,1.16,0.051,1.624
				C147.682,138.679,147.375,138.804,147.071,138.804z"/>
			<path fill="#FFFFFF" d="M102.924,138.804c-0.304,0-0.609-0.125-0.84-0.363c-0.433-0.464-0.41-1.191,0.051-1.624l13.229-12.407
				c0.466-0.434,1.193-0.413,1.629,0.05c0.431,0.464,0.408,1.189-0.055,1.624l-13.228,12.405
				C103.49,138.698,103.206,138.804,102.924,138.804z"/>
		</g>
		<path fill="#FFFFFF" d="M154.891,150.337H95.104c-3.167,0-5.744-2.575-5.744-5.745V105.41c0-3.169,2.577-5.746,5.744-5.746h59.786
			c3.168,0,5.747,2.577,5.747,5.746v39.182C160.638,147.762,158.059,150.337,154.891,150.337z M95.104,101.963
			c-1.901,0-3.449,1.546-3.449,3.447v39.182c0,1.902,1.548,3.447,3.449,3.447h59.786c1.902,0,3.449-1.545,3.449-3.447V105.41
			c0-1.901-1.547-3.447-3.449-3.447H95.104z"/>
		<path fill="#FFFFFF" d="M125,130.774c-1.53,0-3.059-0.507-4.221-1.521l-29.514-25.744c-0.476-0.415-0.526-1.141-0.113-1.622
			c0.424-0.479,1.147-0.522,1.624-0.109l29.513,25.742c1.469,1.278,3.95,1.278,5.417,0l29.476-25.7
			c0.477-0.418,1.2-0.372,1.622,0.109c0.417,0.479,0.367,1.204-0.109,1.622l-29.476,25.702
			C128.052,130.268,126.525,130.774,125,130.774z"/>
	</g>
</g>
</svg>
