<?xml version="1.0" encoding="utf-8"?>
<!-- Generator: Adobe Illustrator 16.0.0, SVG Export Plug-In . SVG Version: 6.00 Build 0)  -->
<!DOCTYPE svg PUBLIC "-//W3C//DTD SVG 1.1//EN" "http://www.w3.org/Graphics/SVG/1.1/DTD/svg11.dtd">
<svg version="1.1" id="Layer_1" xmlns="http://www.w3.org/2000/svg" xmlns:xlink="http://www.w3.org/1999/xlink" x="0px" y="0px"
	 width="250px" height="250px" viewBox="0 0 250 250" enable-background="new 0 0 250 250" xml:space="preserve">
<path fill="#5D5D5D" d="M203.551,191.123l-46.385-46.383c7.704-10.271,12.316-22.979,12.316-36.771
	c0-33.923-27.588-61.519-61.513-61.519c-33.927,0-61.521,27.596-61.521,61.519c0,33.927,27.594,61.521,61.521,61.521
	c13.794,0,26.499-4.62,36.773-12.317l46.38,46.378L203.551,191.123z M52.31,107.969c0-30.693,24.97-55.659,55.66-55.659
	c30.693,0,55.658,24.966,55.658,55.659c0,30.692-24.965,55.66-55.658,55.66C77.279,163.629,52.31,138.661,52.31,107.969z
	 M150.641,152.186c0.518-0.503,1.037-1.019,1.539-1.539c0.429-0.442,0.89-0.85,1.305-1.305l41.78,41.781l-4.142,4.146
	l-41.781-41.784C149.797,153.073,150.2,152.609,150.641,152.186z"/>
</svg>
