<?xml version="1.0" encoding="utf-8"?>
<!-- Generator: Adobe Illustrator 16.0.0, SVG Export Plug-In . SVG Version: 6.00 Build 0)  -->
<!DOCTYPE svg PUBLIC "-//W3C//DTD SVG 1.1//EN" "http://www.w3.org/Graphics/SVG/1.1/DTD/svg11.dtd">
<svg version="1.1" id="Layer_1" xmlns="http://www.w3.org/2000/svg" xmlns:xlink="http://www.w3.org/1999/xlink" x="0px" y="0px"
	 width="250px" height="250px" viewBox="0 0 250 250" enable-background="new 0 0 250 250" xml:space="preserve">
<g>
	<path fill="#BE0013" d="M125,203.398c-43.228,0-78.398-35.17-78.398-78.397c0-43.228,35.171-78.4,78.398-78.4
		c43.232,0,78.398,35.173,78.398,78.4C203.398,168.229,168.232,203.398,125,203.398z M125,51.358
		c-40.608,0-73.644,33.034-73.644,73.644c0,40.61,33.035,73.647,73.644,73.647c40.605,0,73.648-33.037,73.648-73.647
		C198.648,84.392,165.605,51.358,125,51.358z"/>
	<path fill="#BE0013" d="M125,203.398c-16.319,0-32.004-5.027-45.368-14.541c-0.712-0.51-1.09-1.375-0.979-2.248
		c0.115-0.867,0.707-1.609,1.529-1.916c19.7-7.291,22.88-13.207,22.88-24.559c0-2.998-0.676-3.979-1.896-5.764
		c-1.607-2.348-3.813-5.568-5.362-13.965c-0.231-1.209-0.425-1.303-1.499-1.826c-2.88-1.389-5.529-3.383-6.221-12.486
		c0-4.412,1.519-6.847,2.779-8.117c-0.276-1.565-0.727-4.269-1.15-7.219c-2.147-13.192-2.247-29.351,16.313-36.863
		c16.172-6.554,29.079-2.976,33.136,1.295c2.866,0.092,10.274,0.844,15.423,6.838c7.924,9.214,5.404,30.23,4.535,35.926
		c1.268,1.24,2.799,3.644,2.799,7.959c-0.694,9.285-3.338,11.285-6.225,12.667c-1.083,0.523-1.277,0.613-1.498,1.826
		c-1.553,8.396-3.749,11.617-5.357,13.965c-1.226,1.779-1.895,2.766-1.895,5.764c0,11.352,3.179,17.268,22.881,24.559
		c0.821,0.307,1.413,1.043,1.528,1.916c0.114,0.883-0.27,1.738-0.979,2.248C157.006,198.371,141.324,203.398,125,203.398z
		 M86.12,187.492c11.699,7.307,25.054,11.156,38.88,11.156c13.831,0,27.186-3.85,38.885-11.156
		c-16.508-6.779-21.691-13.615-21.691-27.352c0-4.469,1.32-6.402,2.723-8.449c1.445-2.113,3.241-4.734,4.609-12.148
		c0.657-3.582,2.744-4.576,4.11-5.242c1.477-0.705,3.001-1.438,3.54-8.565c-0.011-3.629-1.639-4.617-1.701-4.655
		c-0.874-0.505-1.441-1.563-1.258-2.554c1.18-6.313,3.117-26.007-3.235-33.401c-4.337-5.045-11.171-5.188-12.475-5.133
		c-0.216-0.021-0.43-0.026-0.64-0.078c-0.618-0.157-1.66-0.694-1.982-1.243c-1.29-2.216-12.545-6.67-28.078-0.38
		c-15.35,6.216-15.387,19.536-13.392,31.747c0.655,4.545,1.372,8.479,1.372,8.479c0.199,1.086-0.361,2.149-1.34,2.602l0,0
		c0,0-1.613,0.996-1.613,4.787c0.534,6.944,2.059,7.678,3.53,8.391c1.377,0.658,3.456,1.658,4.115,5.238
		c1.372,7.414,3.169,10.033,4.608,12.143c1.404,2.047,2.729,3.986,2.729,8.453C107.817,173.883,102.632,180.715,86.12,187.492z"/>
</g>
</svg>
