<?xml version="1.0" encoding="utf-8"?>
<!-- Generator: Adobe Illustrator 16.0.0, SVG Export Plug-In . SVG Version: 6.00 Build 0)  -->
<!DOCTYPE svg PUBLIC "-//W3C//DTD SVG 1.1//EN" "http://www.w3.org/Graphics/SVG/1.1/DTD/svg11.dtd">
<svg version="1.1" id="Layer_1" xmlns="http://www.w3.org/2000/svg" xmlns:xlink="http://www.w3.org/1999/xlink" x="0px" y="0px"
	 width="250px" height="250px" viewBox="0 0 250 250" enable-background="new 0 0 250 250" xml:space="preserve">
<g>
	<path fill-rule="evenodd" clip-rule="evenodd" fill="#E7EBF3" d="M34.266,124.9c0.01-50.549,40.484-90.704,91.229-90.502
		c50.111,0.198,90.246,40.504,90.24,90.626c-0.008,50.35-40.834,90.854-91.303,90.576C74.279,215.325,34.258,175.065,34.266,124.9z
		 M43.369,124.56c-0.25,44.854,36.324,81.767,81.188,81.932c45.016,0.164,81.859-36.272,82.012-81.111
		c0.152-44.591-36.055-81.557-80.248-81.932C80.674,43.062,43.623,79.289,43.369,124.56z"/>
	<path fill-rule="evenodd" clip-rule="evenodd" fill="#E7EBF3" d="M121.787,179.466c-8.645-1.409-19.359-3.173-30.084-4.889
		c-6.404-1.025-8.764-4.027-9.188-11.175c-2.162-36.361,16.125-44.533,42.473-42.514c4.025,0.307,8.102-0.095,12.143,0.102
		c18.572,0.904,29.795,12.563,30.133,31.184c0.381,21.095,0.408,21.24-20.934,24.819
		C138.99,178.223,131.496,178.518,121.787,179.466z"/>
	<path fill-rule="evenodd" clip-rule="evenodd" fill="#E7EBF3" d="M147.271,93.151c0.107,12.208-9.398,21.969-21.717,22.297
		c-12.58,0.335-22.977-9.554-23.109-21.976c-0.131-12.061,9.547-21.863,21.871-22.159C137.301,71.002,147.156,80.377,147.271,93.151
		z"/>
</g>
</svg>
